# xmcd
#
# Track frame offsets:
#	150
#	20145
#	44396
#	59355
#	74359
#	89638
#	107958
#	123470
#	140752
#	155644
#	168788
#	183827
#	199106
#	215259
#	231405
#	245629
#	261128
#	275540
#	291955
#	306147
#	320775
#
# Disc length: 4470 seconds
#
# Revision: 2
# Processed by: cddbd v1.5.2PL0 Copyright (c) Steve Scherf et al.
# Submitted via: EasyCDDAExtractor 16.1.0.1
#
DISCID=4e117415
DTITLE=Various Artist - The Dome Summer 2011 CD 1
DYEAR=2011
DGENRE=Pop
TTITLE0=Lmfao feat. Lauren Bennett and Goonrock - Party Rock Anthem
TTITLE1=Lady Gaga - The Edge Of Glory
TTITLE2=Snoop dogg vs. David Guetta - Sweat (David Guetta Remix)
TTITLE3=Lucenzo feat. Big Ali - Vem Dancar Kuduro
TTITLE4=Jennifer Lopez feat. Lil Wayne - I'm Into You
TTITLE5=The Black Eyed Peas - Don't Stop The Party
TTITLE6=Pigeon John - The Bomb
TTITLE7=Cascada - San Francisco
TTITLE8=Dj Antoine vs. Timati feat. Kalenna - Welcome To St. Tropez
TTITLE9=Milk and Sugar feat. Miriam Makeba and Jungle Brothers - Hi-A Ma (Pata Pat
TTITLE9=a)
TTITLE10=Nicole Scherzinger - Don't Hold Your Breath
TTITLE11=Flo Rida feat. Akon - Who Dat Girl
TTITLE12=Jay Sean feat. Lil Wayne - Down
TTITLE13=Swedish Houes Mafia - Save The World
TTITLE14=Global Deejays - Freakin' Out
TTITLE15=R.I.O. - Miss Sunshine
TTITLE16=Ava Rocks - Still Rave About You
TTITLE17=Pitbull - Bon, Bon
TTITLE18=Juan Magan feat. Lumidee - Mariah (You Know I Want You)
TTITLE19=The Saturdays - Notorious
TTITLE20=Pietro Lombardi - Holiday
EXTD=
EXTT0=
EXTT1=
EXTT2=
EXTT3=
EXTT4=
EXTT5=
EXTT6=
EXTT7=
EXTT8=
EXTT9=
EXTT10=
EXTT11=
EXTT12=
EXTT13=
EXTT14=
EXTT15=
EXTT16=
EXTT17=
EXTT18=
EXTT19=
EXTT20=
PLAYORDER=
